<svg width="422" height="222" viewBox="0 0 422 222" fill="none" xmlns="http://www.w3.org/2000/svg">
<circle cx="78.7319" cy="90.9991" r="70" stroke="white" stroke-width="4"/>
<path d="M98.5184 13.3862L87.7319 22.4894L99.448 14.9624C103.835 12.144 108.636 10.0291 113.676 8.69457L114.159 8.56683L115.391 8.39203C119.208 7.85069 122.97 9.68575 124.893 13.0267C125.636 14.3189 126.063 15.769 126.138 17.258L126.563 25.7023L125.54 39.5865C125.146 44.9321 123.895 50.1797 121.835 55.1282L106.069 93L128.721 46.5862L131.417 40.6959L133.434 34.0208C134.245 31.3358 134.829 28.5873 135.18 25.8044L135.732 21.4184L135.732 16.5867C135.732 14.1302 135.156 11.7079 134.052 9.51396L133.954 9.32087C133.345 8.11041 132.565 6.99331 131.64 6.00347C128.165 2.28861 122.971 0.712224 118.018 1.86932L116.855 2.14102L116.658 2.19699C111.807 3.57322 107.286 5.9227 103.372 9.10231L98.5184 13.3862Z" fill="white" stroke="white"/>
<path d="M91.7624 105.675L89.1533 107.057L90.1529 104.826C91.8469 101.046 96.2843 99.3555 100.064 101.049L102.071 101.949C105.808 103.624 107.504 107.981 105.903 111.733L105.339 111.305L99.4065 106.805L99.1111 106.581L98.7452 106.52L92.7099 105.52L92.2101 105.437L91.7624 105.675Z" stroke="white" stroke-width="3"/>
<mask id="path-4-inside-1" fill="white">
<path fill-rule="evenodd" clip-rule="evenodd" d="M106.4 143.244C124.103 137.668 135.076 119.704 129.5 102C127.932 97.0221 119.112 104.57 109.718 112.608C108.833 113.365 107.944 114.127 107.054 114.882C106.426 110.836 103.775 107.218 99.6308 105.448C95.0749 103.502 89.9028 104.297 86.0964 107.094C86.3685 105.021 86.6683 102.903 86.965 100.808C88.6367 89.0009 90.2125 77.8709 86.2083 79.132C68.5043 84.7077 58.6724 103.58 64.2481 121.283C65.754 126.065 68.2297 130.272 71.3904 133.757L47.6144 182.621L43.589 221.538L71.5678 192.854L94.96 144.778C98.7313 144.929 102.592 144.443 106.4 143.244Z"/>
</mask>
<path fill-rule="evenodd" clip-rule="evenodd" d="M106.4 143.244C124.103 137.668 135.076 119.704 129.5 102C127.932 97.0221 119.112 104.57 109.718 112.608C108.833 113.365 107.944 114.127 107.054 114.882C106.426 110.836 103.775 107.218 99.6308 105.448C95.0749 103.502 89.9028 104.297 86.0964 107.094C86.3685 105.021 86.6683 102.903 86.965 100.808C88.6367 89.0009 90.2125 77.8709 86.2083 79.132C68.5043 84.7077 58.6724 103.58 64.2481 121.283C65.754 126.065 68.2297 130.272 71.3904 133.757L47.6144 182.621L43.589 221.538L71.5678 192.854L94.96 144.778C98.7313 144.929 102.592 144.443 106.4 143.244Z" fill="black"/>
<path d="M129.5 102L125.685 103.202L125.685 103.202L129.5 102ZM106.4 143.244L105.198 139.428L105.198 139.428L106.4 143.244ZM109.718 112.608L112.319 115.648L112.319 115.648L109.718 112.608ZM107.054 114.882L103.102 115.496L104.199 122.558L109.644 117.93L107.054 114.882ZM99.6308 105.448L98.0595 109.126L98.0595 109.126L99.6308 105.448ZM86.0964 107.094L82.1304 106.573L80.9104 115.868L88.4648 110.317L86.0964 107.094ZM86.965 100.808L90.9255 101.368L90.9255 101.368L86.965 100.808ZM86.2083 79.132L85.0067 75.3167L85.0067 75.3167L86.2083 79.132ZM64.2481 121.283L60.4329 122.485L60.4329 122.485L64.2481 121.283ZM71.3904 133.757L74.9872 135.507L76.1712 133.074L74.3532 131.069L71.3904 133.757ZM47.6144 182.621L44.0175 180.871L43.7083 181.507L43.6356 182.21L47.6144 182.621ZM43.589 221.538L39.6102 221.127L38.4277 232.558L46.4524 224.331L43.589 221.538ZM71.5678 192.854L74.4312 195.647L74.8821 195.184L75.1646 194.604L71.5678 192.854ZM94.96 144.778L95.1201 140.781L92.5073 140.677L91.3632 143.028L94.96 144.778ZM125.685 103.202C130.504 118.503 121.102 134.419 105.198 139.428L107.601 147.059C127.104 140.916 139.647 120.905 133.315 100.798L125.685 103.202ZM112.319 115.648C117.107 111.55 121.41 107.88 124.688 105.8C125.481 105.297 126.139 104.936 126.667 104.699C126.927 104.582 127.132 104.506 127.285 104.459C127.36 104.436 127.417 104.421 127.457 104.413C127.496 104.404 127.514 104.402 127.512 104.402C127.51 104.403 127.482 104.406 127.433 104.405C127.384 104.404 127.308 104.399 127.213 104.383C127.013 104.348 126.75 104.266 126.475 104.095C125.871 103.72 125.696 103.238 125.685 103.202L133.315 100.798C132.912 99.5177 132.118 98.1825 130.695 97.2988C129.3 96.4322 127.812 96.3194 126.625 96.4517C124.454 96.6939 122.246 97.8743 120.4 99.0459C116.527 101.504 111.723 105.628 107.117 109.569L112.319 115.648ZM109.644 117.93C110.54 117.17 111.435 116.404 112.319 115.648L107.117 109.569C106.232 110.327 105.347 111.084 104.464 111.834L109.644 117.93ZM98.0595 109.126C100.916 110.347 102.682 112.794 103.102 115.496L111.007 114.268C110.17 108.878 106.634 104.09 101.202 101.77L98.0595 109.126ZM88.4648 110.317C91.2049 108.304 94.8871 107.771 98.0595 109.126L101.202 101.77C95.2627 99.2323 88.6007 100.29 83.728 103.87L88.4648 110.317ZM83.0045 100.247C82.7083 102.339 82.4056 104.476 82.1304 106.573L90.0624 107.614C90.3314 105.565 90.6282 103.468 90.9255 101.368L83.0045 100.247ZM87.4098 82.9473C87.1005 83.0447 86.2536 83.1704 85.367 82.6264C84.6314 82.175 84.4615 81.6121 84.5001 81.7162C84.6017 81.9905 84.7666 82.9578 84.7164 84.9695C84.6211 88.7836 83.854 94.2471 83.0045 100.247L90.9255 101.368C91.7477 95.5613 92.6043 89.5565 92.7139 85.1692C92.766 83.0802 92.6786 80.7636 92.0017 78.9367C91.651 77.9902 90.9603 76.6725 89.551 75.8077C87.9907 74.8503 86.3171 74.904 85.0067 75.3167L87.4098 82.9473ZM68.0634 120.082C63.1513 104.485 71.813 87.8593 87.4098 82.9473L85.0067 75.3167C65.1956 81.556 54.1936 102.674 60.4329 122.485L68.0634 120.082ZM74.3532 131.069C71.5728 128.004 69.3922 124.301 68.0634 120.082L60.4329 122.485C62.1158 127.829 64.8867 132.54 68.4276 136.444L74.3532 131.069ZM51.2112 184.371L74.9872 135.507L67.7936 132.007L44.0175 180.871L51.2112 184.371ZM47.5677 221.95L51.5931 183.033L43.6356 182.21L39.6102 221.127L47.5677 221.95ZM68.7043 190.061L40.7255 218.745L46.4524 224.331L74.4312 195.647L68.7043 190.061ZM91.3632 143.028L67.9709 191.104L75.1646 194.604L98.5568 146.528L91.3632 143.028ZM105.198 139.428C101.837 140.487 98.437 140.914 95.1201 140.781L94.7999 148.775C99.0256 148.944 103.348 148.398 107.601 147.059L105.198 139.428Z" fill="white" mask="url(#path-4-inside-1)"/>
<path fill-rule="evenodd" clip-rule="evenodd" d="M70.1478 179.583C74.4658 178.223 76.8639 173.62 75.504 169.302C74.144 164.984 69.5411 162.586 65.2231 163.946C60.9051 165.306 58.5071 169.909 59.867 174.227C61.2269 178.545 65.8298 180.943 70.1478 179.583ZM70.3744 178.305C73.6913 177.26 75.5333 173.725 74.4887 170.408C73.4441 167.091 69.9084 165.249 66.5915 166.293C63.2747 167.338 61.4327 170.874 62.4773 174.191C63.5219 177.507 67.0575 179.349 70.3744 178.305Z" fill="white"/>
<path d="M189.532 77.8391V121.999H181.148L164.892 94.4151V121.999H156.508V77.8391H164.892L181.148 105.487V77.8391H189.532ZM220.238 113.423H205.07L202.382 121.999H193.55L209.23 77.8391H216.078L231.822 121.999H222.926L220.238 113.423ZM217.998 106.447L212.622 89.4871L207.31 106.447H217.998ZM249.195 122.383C244.459 122.383 240.768 121.21 238.123 118.863C235.478 116.474 234.006 113.039 233.707 108.559H241.643C241.942 110.991 242.71 112.719 243.947 113.743C245.227 114.724 247.104 115.215 249.579 115.215C254.315 115.215 256.683 113.274 256.683 109.391C256.683 107.642 256.214 106.319 255.275 105.423C254.336 104.484 252.843 103.844 250.795 103.503L246.635 102.799C238.656 101.476 234.667 97.3804 234.667 90.5111C234.667 86.4151 236.011 83.1724 238.699 80.7831C241.43 78.3937 245.035 77.1991 249.515 77.1991C253.867 77.1991 257.302 78.3511 259.819 80.6551C262.379 82.9591 263.83 86.2018 264.171 90.3831H256.107C255.979 88.2497 255.36 86.6924 254.251 85.7111C253.142 84.7297 251.52 84.2391 249.387 84.2391C247.211 84.2391 245.568 84.7511 244.459 85.7751C243.35 86.7564 242.795 88.1217 242.795 89.8711C242.795 91.4071 243.286 92.6231 244.267 93.5191C245.248 94.4151 246.784 95.0551 248.875 95.4391L253.547 96.2711C261.142 97.6364 264.939 101.775 264.939 108.687C264.939 113.124 263.51 116.516 260.651 118.863C257.835 121.21 254.016 122.383 249.195 122.383ZM298.529 85.1351H287.265V121.999H278.817V85.1351H267.553V77.8391H298.529V85.1351ZM321.926 113.423H306.758L304.07 121.999H295.238L310.918 77.8391H317.766L333.51 121.999H324.614L321.926 113.423ZM319.686 106.447L314.31 89.4871L308.998 106.447H319.686ZM361.217 85.1351H349.953V121.999H341.505V85.1351H330.241V77.8391H361.217V85.1351ZM378.695 122.383C373.959 122.383 370.268 121.21 367.623 118.863C364.978 116.474 363.506 113.039 363.207 108.559H371.143C371.442 110.991 372.21 112.719 373.447 113.743C374.727 114.724 376.604 115.215 379.079 115.215C383.815 115.215 386.183 113.274 386.183 109.391C386.183 107.642 385.714 106.319 384.775 105.423C383.836 104.484 382.343 103.844 380.295 103.503L376.135 102.799C368.156 101.476 364.167 97.3804 364.167 90.5111C364.167 86.4151 365.511 83.1724 368.199 80.7831C370.93 78.3937 374.535 77.1991 379.015 77.1991C383.367 77.1991 386.802 78.3511 389.319 80.6551C391.879 82.9591 393.33 86.2018 393.671 90.3831H385.607C385.479 88.2497 384.86 86.6924 383.751 85.7111C382.642 84.7297 381.02 84.2391 378.887 84.2391C376.711 84.2391 375.068 84.7511 373.959 85.7751C372.85 86.7564 372.295 88.1217 372.295 89.8711C372.295 91.4071 372.786 92.6231 373.767 93.5191C374.748 94.4151 376.284 95.0551 378.375 95.4391L383.047 96.2711C390.642 97.6364 394.439 101.775 394.439 108.687C394.439 113.124 393.01 116.516 390.151 118.863C387.335 121.21 383.516 122.383 378.695 122.383Z" fill="white"/>
<path d="M189.532 77.8391H190.532V76.8391H189.532V77.8391ZM189.532 121.999V122.999H190.532V121.999H189.532ZM181.148 121.999L180.286 122.507L180.576 122.999H181.148V121.999ZM164.892 94.4151L165.753 93.9074L163.892 90.7486V94.4151H164.892ZM164.892 121.999V122.999H165.892V121.999H164.892ZM156.508 121.999H155.508V122.999H156.508V121.999ZM156.508 77.8391V76.8391H155.508V77.8391H156.508ZM164.892 77.8391L165.754 77.3322L165.464 76.8391H164.892V77.8391ZM181.148 105.487L180.286 105.994L182.148 109.161V105.487H181.148ZM181.148 77.8391V76.8391H180.148V77.8391H181.148ZM188.532 77.8391V121.999H190.532V77.8391H188.532ZM189.532 120.999H181.148V122.999H189.532V120.999ZM182.009 121.491L165.753 93.9074L164.03 94.9228L180.286 122.507L182.009 121.491ZM163.892 94.4151V121.999H165.892V94.4151H163.892ZM164.892 120.999H156.508V122.999H164.892V120.999ZM157.508 121.999V77.8391H155.508V121.999H157.508ZM156.508 78.8391H164.892V76.8391H156.508V78.8391ZM164.03 78.3459L180.286 105.994L182.01 104.98L165.754 77.3322L164.03 78.3459ZM182.148 105.487V77.8391H180.148V105.487H182.148ZM181.148 78.8391H189.532V76.8391H181.148V78.8391ZM220.238 113.423L221.193 113.124L220.973 112.423H220.238V113.423ZM205.07 113.423V112.423H204.336L204.116 113.124L205.07 113.423ZM202.382 121.999V122.999H203.117L203.337 122.298L202.382 121.999ZM193.55 121.999L192.608 121.664L192.134 122.999H193.55V121.999ZM209.23 77.8391V76.8391H208.524L208.288 77.5045L209.23 77.8391ZM216.078 77.8391L217.02 77.5033L216.784 76.8391H216.078V77.8391ZM231.822 121.999V122.999H233.241L232.764 121.663L231.822 121.999ZM222.926 121.999L221.972 122.298L222.192 122.999H222.926V121.999ZM217.998 106.447V107.447H219.364L218.952 106.145L217.998 106.447ZM212.622 89.4871L213.576 89.1849L212.617 86.1596L211.668 89.1882L212.622 89.4871ZM207.31 106.447L206.356 106.148L205.949 107.447H207.31V106.447ZM220.238 112.423H205.07V114.423H220.238V112.423ZM204.116 113.124L201.428 121.7L203.337 122.298L206.025 113.722L204.116 113.124ZM202.382 120.999H193.55V122.999H202.382V120.999ZM194.493 122.334L210.173 78.1737L208.288 77.5045L192.608 121.664L194.493 122.334ZM209.23 78.8391H216.078V76.8391H209.23V78.8391ZM215.136 78.1749L230.88 122.335L232.764 121.663L217.02 77.5033L215.136 78.1749ZM231.822 120.999H222.926V122.999H231.822V120.999ZM223.881 121.7L221.193 113.124L219.284 113.722L221.972 122.298L223.881 121.7ZM218.952 106.145L213.576 89.1849L211.669 89.7892L217.045 106.749L218.952 106.145ZM211.668 89.1882L206.356 106.148L208.265 106.746L213.577 89.786L211.668 89.1882ZM207.31 107.447H217.998V105.447H207.31V107.447ZM238.123 118.863L237.453 119.605L237.459 119.611L238.123 118.863ZM233.707 108.559V107.559H232.638L232.709 108.626L233.707 108.559ZM241.643 108.559L242.635 108.437L242.528 107.559H241.643V108.559ZM243.947 113.743L243.309 114.513L243.324 114.525L243.338 114.537L243.947 113.743ZM255.275 105.423L254.568 106.13L254.576 106.138L254.584 106.146L255.275 105.423ZM250.795 103.503L250.628 104.489L250.63 104.489L250.795 103.503ZM246.635 102.799L246.802 101.813L246.798 101.813L246.635 102.799ZM238.699 80.7831L238.04 80.0305L238.035 80.0357L238.699 80.7831ZM259.819 80.6551L259.144 81.3928L259.15 81.3984L259.819 80.6551ZM264.171 90.3831V91.3831H265.256L265.168 90.3017L264.171 90.3831ZM256.107 90.3831L255.109 90.443L255.165 91.3831H256.107V90.3831ZM244.459 85.7751L245.121 86.5241L245.129 86.5171L245.137 86.5099L244.459 85.7751ZM248.875 95.4391L248.694 96.4226L248.7 96.4236L248.875 95.4391ZM253.547 96.2711L253.724 95.2869L253.722 95.2866L253.547 96.2711ZM260.651 118.863L260.016 118.09L260.011 118.095L260.651 118.863ZM249.195 121.383C244.619 121.383 241.194 120.251 238.786 118.115L237.459 119.611C240.342 122.168 244.298 123.383 249.195 123.383V121.383ZM238.793 118.121C236.387 115.948 234.991 112.784 234.705 108.493L232.709 108.626C233.02 113.294 234.568 116.999 237.453 119.605L238.793 118.121ZM233.707 109.559H241.643V107.559H233.707V109.559ZM240.65 108.681C240.964 111.237 241.793 113.259 243.309 114.513L244.584 112.973C243.626 112.179 242.919 110.745 242.635 108.437L240.65 108.681ZM243.338 114.537C244.864 115.707 246.995 116.215 249.579 116.215V114.215C247.213 114.215 245.589 113.742 244.555 112.949L243.338 114.537ZM249.579 116.215C252.058 116.215 254.103 115.711 255.541 114.532C257.016 113.323 257.683 111.545 257.683 109.391H255.683C255.683 111.12 255.165 112.254 254.273 112.986C253.342 113.749 251.836 114.215 249.579 114.215V116.215ZM257.683 109.391C257.683 107.467 257.163 105.843 255.965 104.7L254.584 106.146C255.264 106.795 255.683 107.816 255.683 109.391H257.683ZM255.982 104.716C254.834 103.568 253.105 102.874 250.959 102.517L250.63 104.489C252.581 104.815 253.838 105.401 254.568 106.13L255.982 104.716ZM250.962 102.517L246.802 101.813L246.468 103.785L250.628 104.489L250.962 102.517ZM246.798 101.813C242.935 101.172 240.171 99.8809 238.375 98.0374C236.598 96.2127 235.667 93.741 235.667 90.5111H233.667C233.667 94.1505 234.73 97.1615 236.942 99.4328C239.136 101.685 242.356 103.103 246.471 103.786L246.798 101.813ZM235.667 90.5111C235.667 86.6567 236.92 83.7027 239.363 81.5305L238.035 80.0357C235.102 82.6422 233.667 86.1734 233.667 90.5111H235.667ZM239.357 81.5357C241.866 79.3409 245.218 78.1991 249.515 78.1991V76.1991C244.852 76.1991 240.993 77.4466 238.04 80.0305L239.357 81.5357ZM249.515 78.1991C253.688 78.1991 256.857 79.3001 259.144 81.3928L260.494 79.9174C257.746 77.4021 254.046 76.1991 249.515 76.1991V78.1991ZM259.15 81.3984C261.481 83.496 262.849 86.4789 263.174 90.4644L265.168 90.3017C264.81 85.9246 263.277 82.4222 260.488 79.9118L259.15 81.3984ZM264.171 89.3831H256.107V91.3831H264.171V89.3831ZM257.105 90.3232C256.968 88.0426 256.296 86.1847 254.913 84.9621L253.588 86.4601C254.425 87.2001 254.99 88.4569 255.109 90.443L257.105 90.3232ZM254.913 84.9621C253.555 83.7604 251.658 83.2391 249.387 83.2391V85.2391C251.382 85.2391 252.728 85.6991 253.588 86.4601L254.913 84.9621ZM249.387 83.2391C247.07 83.2391 245.142 83.7835 243.781 85.0403L245.137 86.5099C245.994 85.7187 247.352 85.2391 249.387 85.2391V83.2391ZM243.796 85.0261C242.433 86.2319 241.795 87.8922 241.795 89.8711H243.795C243.795 88.3513 244.266 87.2809 245.121 86.5241L243.796 85.0261ZM241.795 89.8711C241.795 91.6399 242.371 93.1419 243.593 94.2576L244.941 92.7806C244.2 92.1043 243.795 91.1742 243.795 89.8711H241.795ZM243.593 94.2576C244.772 95.3345 246.52 96.0232 248.694 96.4226L249.056 94.4555C247.049 94.0869 245.724 93.4957 244.941 92.7806L243.593 94.2576ZM248.7 96.4236L253.372 97.2556L253.722 95.2866L249.05 94.4546L248.7 96.4236ZM253.37 97.2553C257.031 97.9135 259.65 99.2177 261.354 101.075C263.047 102.92 263.939 105.421 263.939 108.687H265.939C265.939 105.041 264.933 102.017 262.828 99.723C260.735 97.4418 257.657 95.994 253.724 95.2869L253.37 97.2553ZM263.939 108.687C263.939 112.891 262.597 115.972 260.016 118.09L261.285 119.636C264.422 117.061 265.939 113.358 265.939 108.687H263.939ZM260.011 118.095C257.424 120.25 253.857 121.383 249.195 121.383V123.383C254.176 123.383 258.245 122.169 261.291 119.631L260.011 118.095ZM298.529 85.1351V86.1351H299.529V85.1351H298.529ZM287.265 85.1351V84.1351H286.265V85.1351H287.265ZM287.265 121.999V122.999H288.265V121.999H287.265ZM278.817 121.999H277.817V122.999H278.817V121.999ZM278.817 85.1351H279.817V84.1351H278.817V85.1351ZM267.553 85.1351H266.553V86.1351H267.553V85.1351ZM267.553 77.8391V76.8391H266.553V77.8391H267.553ZM298.529 77.8391H299.529V76.8391H298.529V77.8391ZM298.529 84.1351H287.265V86.1351H298.529V84.1351ZM286.265 85.1351V121.999H288.265V85.1351H286.265ZM287.265 120.999H278.817V122.999H287.265V120.999ZM279.817 121.999V85.1351H277.817V121.999H279.817ZM278.817 84.1351H267.553V86.1351H278.817V84.1351ZM268.553 85.1351V77.8391H266.553V85.1351H268.553ZM267.553 78.8391H298.529V76.8391H267.553V78.8391ZM297.529 77.8391V85.1351H299.529V77.8391H297.529ZM321.926 113.423L322.88 113.124L322.66 112.423H321.926V113.423ZM306.758 113.423V112.423H306.023L305.804 113.124L306.758 113.423ZM304.07 121.999V122.999H304.804L305.024 122.298L304.07 121.999ZM295.238 121.999L294.296 121.664L293.822 122.999H295.238V121.999ZM310.918 77.8391V76.8391H310.212L309.976 77.5045L310.918 77.8391ZM317.766 77.8391L318.708 77.5033L318.471 76.8391H317.766V77.8391ZM333.51 121.999V122.999H334.928L334.452 121.663L333.51 121.999ZM324.614 121.999L323.66 122.298L323.879 122.999H324.614V121.999ZM319.686 106.447V107.447H321.052L320.639 106.145L319.686 106.447ZM314.31 89.4871L315.263 89.1849L314.304 86.1596L313.356 89.1882L314.31 89.4871ZM308.998 106.447L308.044 106.148L307.637 107.447H308.998V106.447ZM321.926 112.423H306.758V114.423H321.926V112.423ZM305.804 113.124L303.116 121.7L305.024 122.298L307.712 113.722L305.804 113.124ZM304.07 120.999H295.238V122.999H304.07V120.999ZM296.18 122.334L311.86 78.1737L309.976 77.5045L294.296 121.664L296.18 122.334ZM310.918 78.8391H317.766V76.8391H310.918V78.8391ZM316.824 78.1749L332.568 122.335L334.452 121.663L318.708 77.5033L316.824 78.1749ZM333.51 120.999H324.614V122.999H333.51V120.999ZM325.568 121.7L322.88 113.124L320.972 113.722L323.66 122.298L325.568 121.7ZM320.639 106.145L315.263 89.1849L313.357 89.7892L318.733 106.749L320.639 106.145ZM313.356 89.1882L308.044 106.148L309.952 106.746L315.264 89.786L313.356 89.1882ZM308.998 107.447H319.686V105.447H308.998V107.447ZM361.217 85.1351V86.1351H362.217V85.1351H361.217ZM349.953 85.1351V84.1351H348.953V85.1351H349.953ZM349.953 121.999V122.999H350.953V121.999H349.953ZM341.505 121.999H340.505V122.999H341.505V121.999ZM341.505 85.1351H342.505V84.1351H341.505V85.1351ZM330.241 85.1351H329.241V86.1351H330.241V85.1351ZM330.241 77.8391V76.8391H329.241V77.8391H330.241ZM361.217 77.8391H362.217V76.8391H361.217V77.8391ZM361.217 84.1351H349.953V86.1351H361.217V84.1351ZM348.953 85.1351V121.999H350.953V85.1351H348.953ZM349.953 120.999H341.505V122.999H349.953V120.999ZM342.505 121.999V85.1351H340.505V121.999H342.505ZM341.505 84.1351H330.241V86.1351H341.505V84.1351ZM331.241 85.1351V77.8391H329.241V85.1351H331.241ZM330.241 78.8391H361.217V76.8391H330.241V78.8391ZM360.217 77.8391V85.1351H362.217V77.8391H360.217ZM367.623 118.863L366.953 119.605L366.959 119.611L367.623 118.863ZM363.207 108.559V107.559H362.138L362.209 108.626L363.207 108.559ZM371.143 108.559L372.135 108.437L372.028 107.559H371.143V108.559ZM373.447 113.743L372.809 114.513L372.824 114.525L372.838 114.537L373.447 113.743ZM384.775 105.423L384.068 106.13L384.076 106.138L384.084 106.146L384.775 105.423ZM380.295 103.503L380.128 104.489L380.13 104.489L380.295 103.503ZM376.135 102.799L376.302 101.813L376.298 101.813L376.135 102.799ZM368.199 80.7831L367.54 80.0305L367.535 80.0357L368.199 80.7831ZM389.319 80.6551L388.644 81.3928L388.65 81.3984L389.319 80.6551ZM393.671 90.3831V91.3831H394.756L394.668 90.3017L393.671 90.3831ZM385.607 90.3831L384.609 90.443L384.665 91.3831H385.607V90.3831ZM373.959 85.7751L374.621 86.5241L374.629 86.5171L374.637 86.5099L373.959 85.7751ZM378.375 95.4391L378.194 96.4226L378.2 96.4236L378.375 95.4391ZM383.047 96.2711L383.224 95.2869L383.222 95.2866L383.047 96.2711ZM390.151 118.863L389.516 118.09L389.511 118.095L390.151 118.863ZM378.695 121.383C374.119 121.383 370.694 120.251 368.286 118.115L366.959 119.611C369.842 122.168 373.798 123.383 378.695 123.383V121.383ZM368.293 118.121C365.887 115.948 364.491 112.784 364.205 108.493L362.209 108.626C362.52 113.294 364.068 116.999 366.953 119.605L368.293 118.121ZM363.207 109.559H371.143V107.559H363.207V109.559ZM370.15 108.681C370.464 111.237 371.293 113.259 372.809 114.513L374.084 112.973C373.126 112.179 372.419 110.745 372.135 108.437L370.15 108.681ZM372.838 114.537C374.364 115.707 376.495 116.215 379.079 116.215V114.215C376.713 114.215 375.089 113.742 374.055 112.949L372.838 114.537ZM379.079 116.215C381.558 116.215 383.603 115.711 385.041 114.532C386.516 113.323 387.183 111.545 387.183 109.391H385.183C385.183 111.12 384.665 112.254 383.773 112.986C382.842 113.749 381.336 114.215 379.079 114.215V116.215ZM387.183 109.391C387.183 107.467 386.663 105.843 385.465 104.7L384.084 106.146C384.764 106.795 385.183 107.816 385.183 109.391H387.183ZM385.482 104.716C384.334 103.568 382.605 102.874 380.459 102.517L380.13 104.489C382.081 104.815 383.338 105.401 384.068 106.13L385.482 104.716ZM380.462 102.517L376.302 101.813L375.968 103.785L380.128 104.489L380.462 102.517ZM376.298 101.813C372.435 101.172 369.671 99.8809 367.875 98.0374C366.098 96.2127 365.167 93.741 365.167 90.5111H363.167C363.167 94.1505 364.23 97.1615 366.442 99.4328C368.636 101.685 371.856 103.103 375.971 103.786L376.298 101.813ZM365.167 90.5111C365.167 86.6567 366.42 83.7027 368.863 81.5305L367.535 80.0357C364.602 82.6422 363.167 86.1734 363.167 90.5111H365.167ZM368.857 81.5357C371.366 79.3409 374.718 78.1991 379.015 78.1991V76.1991C374.352 76.1991 370.493 77.4466 367.54 80.0305L368.857 81.5357ZM379.015 78.1991C383.188 78.1991 386.357 79.3001 388.644 81.3928L389.994 79.9174C387.246 77.4021 383.546 76.1991 379.015 76.1991V78.1991ZM388.65 81.3984C390.981 83.496 392.349 86.4789 392.674 90.4644L394.668 90.3017C394.31 85.9246 392.777 82.4222 389.988 79.9118L388.65 81.3984ZM393.671 89.3831H385.607V91.3831H393.671V89.3831ZM386.605 90.3232C386.468 88.0426 385.796 86.1847 384.413 84.9621L383.088 86.4601C383.925 87.2001 384.49 88.4569 384.609 90.443L386.605 90.3232ZM384.413 84.9621C383.055 83.7604 381.158 83.2391 378.887 83.2391V85.2391C380.882 85.2391 382.228 85.6991 383.088 86.4601L384.413 84.9621ZM378.887 83.2391C376.57 83.2391 374.642 83.7835 373.281 85.0403L374.637 86.5099C375.494 85.7187 376.852 85.2391 378.887 85.2391V83.2391ZM373.296 85.0261C371.933 86.2319 371.295 87.8922 371.295 89.8711H373.295C373.295 88.3513 373.766 87.2809 374.621 86.5241L373.296 85.0261ZM371.295 89.8711C371.295 91.6399 371.871 93.1419 373.093 94.2576L374.441 92.7806C373.7 92.1043 373.295 91.1742 373.295 89.8711H371.295ZM373.093 94.2576C374.272 95.3345 376.02 96.0232 378.194 96.4226L378.556 94.4555C376.549 94.0869 375.224 93.4957 374.441 92.7806L373.093 94.2576ZM378.2 96.4236L382.872 97.2556L383.222 95.2866L378.55 94.4546L378.2 96.4236ZM382.87 97.2553C386.531 97.9135 389.15 99.2177 390.854 101.075C392.547 102.92 393.439 105.421 393.439 108.687H395.439C395.439 105.041 394.433 102.017 392.328 99.723C390.235 97.4418 387.157 95.994 383.224 95.2869L382.87 97.2553ZM393.439 108.687C393.439 112.891 392.097 115.972 389.516 118.09L390.785 119.636C393.922 117.061 395.439 113.358 395.439 108.687H393.439ZM389.511 118.095C386.924 120.25 383.357 121.383 378.695 121.383V123.383C383.676 123.383 387.745 122.169 390.791 119.631L389.511 118.095Z" fill="black"/>
</svg>
