<svg width="543" height="300" viewBox="0 0 543 300" fill="none" xmlns="http://www.w3.org/2000/svg">
<path d="M72.6579 188.536L72 185L97 195.125L94.3684 196.25C94.0943 197.214 93.5461 199.207 93.5461 199.464V201.714L90.9145 203H87.9539V201.714V199.946L84.8289 196.571L82.1974 195.446L80.5526 194.643L77.4276 194.321H75.125L74.6316 190.304L72.6579 188.536Z" fill="#E8E5BB" stroke="black"/>
<path d="M130 8.5L119.5 14.5C135 16.1667 166.5 19.4 168.5 19C170.5 18.6 176.333 16.1667 179 15L178.5 12.5C178.833 11.5 179.3 9.3 178.5 8.5C177.5 7.5 175 7 174 6C173.2 5.2 172.667 2.66667 172.5 1.5L168.5 5C168.333 5.66667 167.6 7 166 7C164.4 7 162.333 8 161.5 8.5H156L150 6L148 4L142.5 6H137.5L130 8.5Z" fill="#D3D1A8" stroke="black"/>
<circle cx="146.5" cy="112.5" r="103" fill="#FEFCD7" stroke="black"/>
<path d="M173 118L164.635 133.589C163.013 136.613 159.858 138.5 156.426 138.5V138.5C153.625 138.5 150.973 139.76 149.204 141.931L141 152" stroke="#E8E5BB" stroke-width="3"/>
<path d="M98.006 70.6775C98.006 102.368 117.901 175 75.5 175C58.7149 175 54.0761 156.323 49.0406 141.499C45.2929 130.466 43.335 117.614 44.2045 106.347C44.2045 103.266 44.6715 97.0002 46.018 90.8383C47.3833 84.5903 49.6367 78.4496 50.8541 75.847C51.8167 74.0948 54.329 68.4588 56.8992 63.9573C59.2617 59.8193 61.7353 56.7201 61.7353 56.7201C61.7353 56.7201 66.1823 50.0758 73.221 42.7626C85.5779 29.9239 105.899 13.9473 124 20.5341C124 27.2544 98.006 38.9871 98.006 70.6775Z" fill="#F4F1BF"/>
<path d="M85 74.5L89.5 80.5L95.5 82.5L99.5 83.5" stroke="#D9D6AF" stroke-width="2"/>
<path d="M104 43L110.698 43.5358C114.482 43.8385 118.092 45.251 121.077 47.5962V47.5962C122.682 48.8574 124.086 50.3786 125.218 52.0772V52.0772C126.715 54.323 127.742 56.8724 128.211 59.5304L128.352 60.3259C128.781 62.7599 128.822 65.2466 128.472 67.6934L128 71" stroke="#D9D6AF" stroke-width="3"/>
<ellipse cx="106" cy="63.5" rx="20" ry="17.5" fill="#D9D6AF"/>
<ellipse cx="106.5" cy="63.5" rx="15.5" ry="13.5" fill="#EEECC5"/>
<path d="M230.909 123.908C232.193 125.551 234.814 127.036 235.266 129.192C235.686 131.202 234.976 132.402 234.766 134.192C234.59 135.688 232.02 138.877 231.23 140.298C228.863 144.56 236.964 149.161 230.909 152.189" stroke="#E8E5BB" stroke-width="3" stroke-linecap="round" stroke-linejoin="round"/>
<path d="M115.044 189.564C112.268 193.396 107.117 195.316 100.579 194.895C94.0718 194.476 86.5012 191.729 79.4915 186.65C72.4817 181.571 67.5128 175.233 65.0878 169.18C62.6514 163.099 62.8714 157.605 65.6475 153.774C68.4235 149.943 73.5751 148.022 80.1128 148.443C86.62 148.862 94.1906 151.609 101.2 156.688C108.21 161.767 113.179 168.105 115.604 174.158C118.04 180.24 117.82 185.733 115.044 189.564Z" fill="#D3D1A8" stroke="#E8E5BB" stroke-width="4"/>
<path d="M97.2848 144.133C100.169 145.479 102.487 148.351 104.461 150.818C105.489 152.103 106.819 152.98 107.822 154.27C110.603 157.846 114.017 160.874 118.068 162.954C123.238 165.608 124.099 172.223 124.099 177.487" stroke="#E8E5BB" stroke-width="5" stroke-linecap="round" stroke-linejoin="round"/>
<path d="M232 58L224 46L218.5 42.5L222.5 42L218 38L216.5 36.5L221 36H224.914C225.616 36 226.295 36.246 226.834 36.6953L230.921 40.1005C231.605 40.6704 232 41.5148 232 42.4051V47.169C232 47.7128 232.148 48.2463 232.428 48.7125L236.216 55.026C236.404 55.3394 236.647 55.6157 236.935 55.8415L242.05 59.8608C242.939 60.5595 243.36 61.6991 243.138 62.8081L241.5 71L239.5 66L236 61L236.5 64L232 58Z" fill="#E8E5BB" stroke="black"/>
<path d="M224 126.5C224 148.702 204.25 167 179.5 167C154.75 167 135 148.702 135 126.5C135 104.298 154.75 86 179.5 86C204.25 86 224 104.298 224 126.5Z" fill="#E0DEBC" stroke="#C2C1A5" stroke-width="4"/>
<path d="M53.6926 257.713L45.8681 250.962L60.4409 234.062L70.322 222.604C73.4494 218.978 77.3936 216.146 81.8293 214.343L87.3607 212.094L84.8019 218.843C83.5506 222.143 81.7315 225.199 79.4266 227.872L68.2654 240.814L53.6926 257.713Z" fill="#E6AE1F" stroke="black"/>
<path d="M70.7858 223.912L69.4832 225.423L63.5979 232.247L52.9332 244.614L58.7731 249.654L69.4378 237.287L76.6031 228.978L77.557 227.872C79.2409 225.919 80.5702 223.686 81.4846 221.275L82.0023 219.909L83.4254 216.155L81.0418 217.124L81.0358 217.127L79.1939 217.876C75.9529 219.193 73.0711 221.262 70.7858 223.912Z" fill="#E38630"/>
<path d="M70.7858 223.912L69.4832 225.423L63.5979 232.247L52.9332 244.614L58.7731 249.654L69.4378 237.287L76.6031 228.978L77.557 227.872C79.2409 225.919 80.5702 223.686 81.4846 221.275L82.0023 219.909L83.4254 216.155L81.0418 217.124L81.0358 217.127L79.1939 217.876C75.9529 219.193 73.0711 221.262 70.7858 223.912Z" stroke="black"/>
<path d="M62.421 233.704L68.0451 238.703C68.988 239.541 69.0734 240.985 68.2356 241.928L63.506 247.253L54.467 239.219L59.1966 233.894C60.0344 232.951 61.4779 232.866 62.421 233.704Z" fill="#C4C4C4" stroke="black"/>
<path d="M81.8188 241.404C81.8188 253.503 72.0146 263.31 59.9199 263.31C47.8256 263.31 38.021 253.503 38.021 241.404C38.021 229.306 47.8256 219.498 59.9199 219.498C60.2365 219.498 60.4436 219.59 60.5774 219.742C60.7147 219.898 60.7937 220.14 60.8048 220.479C60.8268 221.16 60.5723 222.155 60.1145 223.385C59.206 225.825 57.5261 229.112 55.7863 232.516L55.7589 232.57C54.0118 235.989 52.2091 239.52 51.0851 242.405C50.5233 243.847 50.1275 245.136 49.9953 246.173C49.8642 247.202 49.9856 248.031 50.5233 248.495C51.151 249.035 52.1261 249.198 53.3137 249.113C54.5065 249.028 55.9437 248.69 57.5266 248.195C60.5328 247.255 64.0915 245.739 67.544 244.268C67.7275 244.19 67.9105 244.112 68.0932 244.034C71.7214 242.489 75.189 241.033 77.7489 240.378C79.0322 240.049 80.065 239.929 80.7701 240.084C81.1189 240.161 81.3771 240.304 81.5493 240.512C81.7207 240.72 81.8188 241.01 81.8188 241.404Z" fill="#4691E9" stroke="black"/>
<path d="M63.6411 250.144L28.3595 287.43L15.6002 276.486L50.8817 239.2C54.0723 235.828 59.5153 235.545 63.0385 238.567C66.5619 241.589 66.8317 246.773 63.6411 250.144Z" fill="#C4C4C4" stroke="black"/>
<path d="M12.0459 291.318L14.7565 278.031L27.0538 288.598L13.9325 292.94C12.8757 293.29 11.8276 292.389 12.0459 291.318Z" fill="#4691E9" stroke="black"/>
<path d="M46.1376 254.571L71.1916 227.525C71.6217 227.06 72.3467 227.033 72.811 227.463C73.2753 227.893 73.303 228.619 72.8728 229.083L47.8188 256.13L46.1376 254.571Z" fill="#4691E9" stroke="black"/>
<path d="M30.0945 278.765C32.914 278.765 35.1997 276.479 35.1997 273.658C35.1997 270.838 32.914 268.551 30.0945 268.551C27.2749 268.551 24.9892 270.838 24.9892 273.658C24.9892 276.479 27.2749 278.765 30.0945 278.765Z" fill="#CEDCFF" stroke="black" stroke-width="2"/>
<path d="M60.8121 257.793C61.2546 257.744 61.5737 257.345 61.5248 256.903C61.476 256.46 61.0776 256.141 60.6351 256.19C60.1926 256.239 59.8735 256.637 59.9224 257.08C59.9713 257.522 60.3696 257.842 60.8121 257.793Z" fill="#C4C4C4" stroke="black" stroke-width="2"/>
<path d="M63.5138 255.331C63.9564 255.282 64.2755 254.884 64.2266 254.441C64.1777 253.999 63.7794 253.679 63.3369 253.728C62.8944 253.777 62.5753 254.176 62.6241 254.618C62.673 255.061 63.0713 255.38 63.5138 255.331Z" fill="#C4C4C4" stroke="black" stroke-width="2"/>
<path d="M65.3851 252.691C65.8276 252.642 66.1467 252.243 66.0978 251.801C66.049 251.358 65.6506 251.039 65.2081 251.088C64.7656 251.137 64.4465 251.535 64.4954 251.978C64.5442 252.42 64.9426 252.74 65.3851 252.691Z" fill="#C4C4C4" stroke="black" stroke-width="2"/>
<path d="M48.3134 237.717C47.8694 237.749 47.535 238.134 47.5667 238.579C47.5984 239.023 47.984 239.357 48.4281 239.326C48.8721 239.294 49.2065 238.908 49.1748 238.464C49.1432 238.02 48.7575 237.685 48.3134 237.717Z" fill="#C4C4C4" stroke="black" stroke-width="2"/>
<path d="M45.5179 240.072C45.0738 240.104 44.7395 240.49 44.7712 240.934C44.8028 241.378 45.1885 241.712 45.6325 241.681C46.0766 241.649 46.4109 241.263 46.3793 240.819C46.3476 240.375 45.962 240.04 45.5179 240.072Z" fill="#C4C4C4" stroke="black" stroke-width="2"/>
<path d="M43.5459 242.638C43.1019 242.67 42.7675 243.055 42.7992 243.5C42.8309 243.944 43.2165 244.278 43.6606 244.247C44.1046 244.215 44.439 243.829 44.4073 243.385C44.3756 242.941 43.99 242.606 43.5459 242.638Z" fill="#C4C4C4" stroke="black" stroke-width="2"/>
<path d="M62.1254 251.313L28 286.5L30.2369 283.842L40.6658 273.128L51.2285 262.414L56.7103 256.864L60.7215 252.733L61.39 252.087L62.8607 250.538L63.54 249.737C63.8879 249.326 64.1793 248.874 64.4066 248.391C64.623 247.931 64.7799 247.447 64.8735 246.95L64.9289 246.656C64.9762 246.405 65 246.15 65 245.895V245.794C65 245.087 64.9102 244.383 64.7326 243.697L64.5272 243.152C64.3085 242.571 64.342 242.515 63.9867 242V245.484C63.8904 246.188 63.802 246.81 63.54 247.475C63.0942 248.604 62.9878 250.436 62.1254 251.313Z" fill="#A4A4A4" stroke="#A4A4A4"/>
<path d="M12.7626 291.183L12.7626 290.441L12.5 291.5C12.4741 291.642 12.3544 291.92 12.3962 292.059L12.5283 292.258C12.5631 292.374 12.7626 292.414 12.7626 292.414C12.9081 292.554 12.7457 292.494 12.9722 292.528C13.0531 292.54 13.1361 292.545 13.2188 292.541L13.3378 292.536C13.5646 292.525 13.7882 292.484 13.9989 292.414L25.0204 288.743L23.9314 288.048L14.2538 291.183C14.0488 291.25 13.5186 291.542 13.3378 291.445C13.2134 291.378 12.8046 291.297 12.7626 291.183Z" fill="#3070BB"/>
<path d="M66.5185 238L65 239.735L65.5694 240.857L65.8542 241.673L66.044 242.592V243L67.3726 241.469L67.6574 241.061L67.7498 240.929C67.876 240.748 67.9576 240.536 67.9874 240.312C68.0199 240.068 67.9891 239.819 67.8988 239.592L67.8682 239.515C67.7916 239.323 67.6817 239.149 67.5442 239.001L67.4675 238.918L66.5185 238Z" fill="#A4A4A4"/>
<path d="M30.5 278C32.433 278 34 276.657 34 275C34 273.343 32.433 272 30.5 272C28.567 272 27 273.343 27 275C27 276.657 28.567 278 30.5 278Z" fill="#98AFE9"/>
<path d="M197.12 19.1189C206.277 15.1644 213.879 10.6016 223.858 8.26002C233.475 6.00364 243.997 5.67598 253.632 8.08488C263.746 10.6131 264.31 26.3009 262.74 34.8234C260.083 49.2452 248.77 61.3203 238.512 71.0781C224.052 84.8324 203.519 94.2634 186.144 103.713C170.22 112.374 156.346 125.542 143.876 138.567C136.495 146.276 131.681 156.315 125.661 165.072C123.595 168.077 120.316 170.395 118.539 173.595C113.707 182.293 105.651 188.433 99.6232 196.247C95.4858 201.61 91.5614 207.695 86.7794 212.477" stroke="black" stroke-linecap="round" stroke-linejoin="round"/>
<path d="M116.44 192.77C109.42 192.77 102.85 198.08 102.85 204.56V260H116.35V204.56L135.07 248.66C137.86 255.14 141.46 260.45 148.48 260.45C155.5 260.45 162.07 255.14 162.07 248.66V193.22H148.57V248.66L129.85 204.56C127.06 198.08 123.46 192.77 116.44 192.77ZM217.319 251.09L220.469 260H234.869L215.249 204.11C212.909 197.45 208.859 192.32 201.839 192.32C194.819 192.32 190.769 197.45 188.429 204.11L168.809 260H183.209L201.839 206.72L213.269 239.48H195.269L188.069 251.09H217.319ZM240.172 212.3C240.172 234.62 282.382 229.4 282.382 240.92C282.382 245.06 276.892 248.39 270.052 248.39H261.052C257.362 248.39 253.132 246.59 250.882 243.71L239.272 252.71C243.952 257.21 254.032 260 261.052 260H270.052C284.272 260 295.882 251.45 295.882 240.92C295.882 218.42 253.672 222.56 253.672 212.3C253.672 208.16 258.802 204.83 265.102 204.83H274.102C277.432 204.83 281.212 206.63 283.282 209.51L294.982 200.51C290.482 196.01 280.852 193.22 274.102 193.22H265.102C251.332 193.22 240.172 201.77 240.172 212.3Z" fill="#4691E9"/>
<path d="M334.575 260V204.83H353.745V193.22H333.765C326.745 193.22 321.075 198.53 321.075 205.01V260H334.575ZM323.595 193.22H303.075V204.83H316.395L323.595 193.22ZM396.616 251.09L399.766 260H414.166L394.546 204.11C392.206 197.45 388.156 192.32 381.136 192.32C374.116 192.32 370.066 197.45 367.726 204.11L348.106 260H362.506L381.136 206.72L392.566 239.48H374.566L367.366 251.09H396.616ZM441.186 260V204.83H460.356V193.22H440.376C433.356 193.22 427.686 198.53 427.686 205.01V260H441.186ZM430.206 193.22H409.686V204.83H423.006L430.206 193.22ZM467.194 212.3C467.194 234.62 509.404 229.4 509.404 240.92C509.404 245.06 503.914 248.39 497.074 248.39H488.074C484.384 248.39 480.154 246.59 477.904 243.71L466.294 252.71C470.974 257.21 481.054 260 488.074 260H497.074C511.294 260 522.904 251.45 522.904 240.92C522.904 218.42 480.694 222.56 480.694 212.3C480.694 208.16 485.824 204.83 492.124 204.83H501.124C504.454 204.83 508.234 206.63 510.304 209.51L522.004 200.51C517.504 196.01 507.874 193.22 501.124 193.22H492.124C478.354 193.22 467.194 201.77 467.194 212.3Z" fill="white"/>
<path d="M102.85 260H101.85V261H102.85V260ZM116.35 260V261H117.35V260H116.35ZM116.35 204.56L117.271 204.169L115.35 204.56H116.35ZM135.07 248.66L134.149 249.051L134.152 249.055L135.07 248.66ZM162.07 193.22H163.07V192.22H162.07V193.22ZM148.57 193.22V192.22H147.57V193.22H148.57ZM148.57 248.66L147.65 249.051L149.57 248.66H148.57ZM129.85 204.56L130.771 204.169L130.768 204.165L129.85 204.56ZM116.44 191.77C112.685 191.77 109.06 193.187 106.366 195.472C103.671 197.758 101.85 200.968 101.85 204.56H103.85C103.85 201.672 105.314 198.987 107.659 196.998C110.005 195.008 113.175 193.77 116.44 193.77V191.77ZM101.85 204.56V260H103.85V204.56H101.85ZM102.85 261H116.35V259H102.85V261ZM117.35 260V204.56H115.35V260H117.35ZM115.43 204.951L134.15 249.051L135.991 248.269L117.271 204.169L115.43 204.951ZM134.152 249.055C136.95 255.555 140.785 261.45 148.48 261.45V259.45C142.135 259.45 138.77 254.725 135.988 248.265L134.152 249.055ZM148.48 261.45C152.235 261.45 155.86 260.033 158.554 257.748C161.249 255.462 163.07 252.252 163.07 248.66H161.07C161.07 251.548 159.606 254.233 157.261 256.222C154.915 258.212 151.745 259.45 148.48 259.45V261.45ZM163.07 248.66V193.22H161.07V248.66H163.07ZM162.07 192.22H148.57V194.22H162.07V192.22ZM147.57 193.22V248.66H149.57V193.22H147.57ZM149.491 248.269L130.771 204.169L128.93 204.951L147.65 249.051L149.491 248.269ZM130.768 204.165C127.97 197.665 124.135 191.77 116.44 191.77V193.77C122.785 193.77 126.15 198.495 128.932 204.955L130.768 204.165ZM217.319 251.09L218.262 250.757L218.026 250.09H217.319V251.09ZM220.469 260L219.526 260.333L219.762 261H220.469V260ZM234.869 260V261H236.28L235.812 259.669L234.869 260ZM215.249 204.11L216.192 203.779L216.192 203.779L215.249 204.11ZM188.429 204.11L187.485 203.779L187.485 203.779L188.429 204.11ZM168.809 260L167.865 259.669L167.398 261H168.809V260ZM183.209 260V261H183.918L184.153 260.33L183.209 260ZM201.839 206.72L202.783 206.391L201.84 203.687L200.895 206.39L201.839 206.72ZM213.269 239.48V240.48H214.677L214.213 239.151L213.269 239.48ZM195.269 239.48V238.48H194.712L194.419 238.953L195.269 239.48ZM188.069 251.09L187.219 250.563L186.272 252.09H188.069V251.09ZM216.376 251.423L219.526 260.333L221.412 259.667L218.262 250.757L216.376 251.423ZM220.469 261H234.869V259H220.469V261ZM235.812 259.669L216.192 203.779L214.305 204.441L233.925 260.331L235.812 259.669ZM216.192 203.779C213.803 196.979 209.506 191.32 201.839 191.32V193.32C208.212 193.32 212.014 197.921 214.305 204.441L216.192 203.779ZM201.839 191.32C194.172 191.32 189.874 196.979 187.485 203.779L189.372 204.441C191.663 197.921 195.466 193.32 201.839 193.32V191.32ZM187.485 203.779L167.865 259.669L169.752 260.331L189.372 204.441L187.485 203.779ZM168.809 261H183.209V259H168.809V261ZM184.153 260.33L202.783 207.05L200.895 206.39L182.265 259.67L184.153 260.33ZM200.895 207.049L212.325 239.809L214.213 239.151L202.783 206.391L200.895 207.049ZM213.269 238.48H195.269V240.48H213.269V238.48ZM194.419 238.953L187.219 250.563L188.919 251.617L196.119 240.007L194.419 238.953ZM188.069 252.09H217.319V250.09H188.069V252.09ZM250.882 243.71L251.67 243.094L251.057 242.309L250.27 242.92L250.882 243.71ZM239.272 252.71L238.66 251.92L237.745 252.629L238.579 253.431L239.272 252.71ZM283.282 209.51L282.47 210.094L283.073 210.932L283.892 210.303L283.282 209.51ZM294.982 200.51L295.592 201.303L296.495 200.608L295.69 199.803L294.982 200.51ZM239.172 212.3C239.172 218.267 242.024 222.405 246.186 225.382C250.298 228.321 255.723 230.158 261.01 231.624C266.381 233.112 271.532 234.204 275.437 235.664C277.376 236.389 278.893 237.167 279.913 238.053C280.904 238.915 281.382 239.836 281.382 240.92H283.382C283.382 239.124 282.541 237.688 281.225 236.544C279.936 235.423 278.155 234.545 276.137 233.79C272.128 232.291 266.726 231.133 261.545 229.696C256.279 228.237 251.152 226.474 247.349 223.755C243.598 221.072 241.172 217.493 241.172 212.3H239.172ZM281.382 240.92C281.382 242.508 280.326 244.103 278.264 245.352C276.219 246.592 273.322 247.39 270.052 247.39V249.39C273.623 249.39 276.891 248.523 279.301 247.063C281.694 245.612 283.382 243.472 283.382 240.92H281.382ZM270.052 247.39H261.052V249.39H270.052V247.39ZM261.052 247.39C257.623 247.39 253.704 245.697 251.67 243.094L250.094 244.326C252.561 247.483 257.102 249.39 261.052 249.39V247.39ZM250.27 242.92L238.66 251.92L239.885 253.5L251.495 244.5L250.27 242.92ZM238.579 253.431C241.078 255.833 244.934 257.715 248.983 258.996C253.049 260.282 257.426 261 261.052 261V259C257.659 259 253.486 258.323 249.587 257.089C245.671 255.85 242.147 254.087 239.966 251.989L238.579 253.431ZM261.052 261H270.052V259H261.052V261ZM270.052 261C277.355 261 284.026 258.806 288.894 255.213C293.761 251.621 296.882 246.578 296.882 240.92H294.882C294.882 245.792 292.199 250.289 287.706 253.604C283.214 256.919 276.97 259 270.052 259V261ZM296.882 240.92C296.882 234.915 294.039 230.679 289.883 227.596C285.773 224.546 280.349 222.595 275.056 221.06C269.669 219.497 264.535 218.391 260.603 216.994C258.655 216.302 257.13 215.578 256.106 214.768C255.105 213.976 254.672 213.181 254.672 212.3H252.672C252.672 213.984 253.559 215.304 254.866 216.337C256.151 217.353 257.924 218.165 259.933 218.879C263.915 220.294 269.334 221.483 274.499 222.98C279.758 224.505 284.886 226.379 288.691 229.202C292.45 231.991 294.882 235.675 294.882 240.92H296.882ZM254.672 212.3C254.672 210.678 255.678 209.085 257.571 207.85C259.456 206.621 262.118 205.83 265.102 205.83V203.83C261.787 203.83 258.734 204.704 256.479 206.175C254.232 207.64 252.672 209.782 252.672 212.3H254.672ZM265.102 205.83H274.102V203.83H265.102V205.83ZM274.102 205.83C277.126 205.83 280.597 207.487 282.47 210.094L284.094 208.926C281.828 205.773 277.739 203.83 274.102 203.83V205.83ZM283.892 210.303L295.592 201.303L294.373 199.717L282.673 208.717L283.892 210.303ZM295.69 199.803C293.283 197.397 289.585 195.512 285.7 194.228C281.8 192.94 277.599 192.22 274.102 192.22V194.22C277.356 194.22 281.345 194.895 285.072 196.127C288.815 197.363 292.182 199.123 294.275 201.217L295.69 199.803ZM274.102 192.22H265.102V194.22H274.102V192.22ZM265.102 192.22C258.017 192.22 251.566 194.419 246.866 198.017C242.164 201.616 239.172 206.658 239.172 212.3H241.172C241.172 207.412 243.76 202.913 248.082 199.605C252.404 196.296 258.418 194.22 265.102 194.22V192.22ZM334.575 260V261H335.575V260H334.575ZM334.575 204.83V203.83H333.575V204.83H334.575ZM353.745 204.83V205.83H354.745V204.83H353.745ZM353.745 193.22H354.745V192.22H353.745V193.22ZM321.075 260H320.075V261H321.075V260ZM323.595 193.22L324.445 193.747L325.392 192.22H323.595V193.22ZM303.075 193.22V192.22H302.075V193.22H303.075ZM303.075 204.83H302.075V205.83H303.075V204.83ZM316.395 204.83V205.83H316.951L317.245 205.357L316.395 204.83ZM335.575 260V204.83H333.575V260H335.575ZM334.575 205.83H353.745V203.83H334.575V205.83ZM354.745 204.83V193.22H352.745V204.83H354.745ZM353.745 192.22H333.765V194.22H353.745V192.22ZM333.765 192.22C326.261 192.22 320.075 197.912 320.075 205.01H322.075C322.075 199.148 327.229 194.22 333.765 194.22V192.22ZM320.075 205.01V260H322.075V205.01H320.075ZM321.075 261H334.575V259H321.075V261ZM323.595 192.22H303.075V194.22H323.595V192.22ZM302.075 193.22V204.83H304.075V193.22H302.075ZM303.075 205.83H316.395V203.83H303.075V205.83ZM317.245 205.357L324.445 193.747L322.745 192.693L315.545 204.303L317.245 205.357ZM396.616 251.09L397.558 250.757L397.323 250.09H396.616V251.09ZM399.766 260L398.823 260.333L399.059 261H399.766V260ZM414.166 260V261H415.577L415.109 259.669L414.166 260ZM394.546 204.11L395.489 203.779L395.489 203.779L394.546 204.11ZM367.726 204.11L366.782 203.779L366.782 203.779L367.726 204.11ZM348.106 260L347.162 259.669L346.695 261H348.106V260ZM362.506 260V261H363.215L363.45 260.33L362.506 260ZM381.136 206.72L382.08 206.391L381.137 203.687L380.192 206.39L381.136 206.72ZM392.566 239.48V240.48H393.974L393.51 239.151L392.566 239.48ZM374.566 239.48V238.48H374.009L373.716 238.953L374.566 239.48ZM367.366 251.09L366.516 250.563L365.569 252.09H367.366V251.09ZM395.673 251.423L398.823 260.333L400.708 259.667L397.558 250.757L395.673 251.423ZM399.766 261H414.166V259H399.766V261ZM415.109 259.669L395.489 203.779L393.602 204.441L413.222 260.331L415.109 259.669ZM395.489 203.779C393.1 196.979 388.803 191.32 381.136 191.32V193.32C387.509 193.32 391.311 197.921 393.602 204.441L395.489 203.779ZM381.136 191.32C373.469 191.32 369.171 196.979 366.782 203.779L368.669 204.441C370.96 197.921 374.763 193.32 381.136 193.32V191.32ZM366.782 203.779L347.162 259.669L349.049 260.331L368.669 204.441L366.782 203.779ZM348.106 261H362.506V259H348.106V261ZM363.45 260.33L382.08 207.05L380.192 206.39L361.562 259.67L363.45 260.33ZM380.191 207.049L391.621 239.809L393.51 239.151L382.08 206.391L380.191 207.049ZM392.566 238.48H374.566V240.48H392.566V238.48ZM373.716 238.953L366.516 250.563L368.215 251.617L375.415 240.007L373.716 238.953ZM367.366 252.09H396.616V250.09H367.366V252.09ZM441.186 260V261H442.186V260H441.186ZM441.186 204.83V203.83H440.186V204.83H441.186ZM460.356 204.83V205.83H461.356V204.83H460.356ZM460.356 193.22H461.356V192.22H460.356V193.22ZM427.686 260H426.686V261H427.686V260ZM430.206 193.22L431.056 193.747L432.003 192.22H430.206V193.22ZM409.686 193.22V192.22H408.686V193.22H409.686ZM409.686 204.83H408.686V205.83H409.686V204.83ZM423.006 204.83V205.83H423.563L423.856 205.357L423.006 204.83ZM442.186 260V204.83H440.186V260H442.186ZM441.186 205.83H460.356V203.83H441.186V205.83ZM461.356 204.83V193.22H459.356V204.83H461.356ZM460.356 192.22H440.376V194.22H460.356V192.22ZM440.376 192.22C432.872 192.22 426.686 197.912 426.686 205.01H428.686C428.686 199.148 433.84 194.22 440.376 194.22V192.22ZM426.686 205.01V260H428.686V205.01H426.686ZM427.686 261H441.186V259H427.686V261ZM430.206 192.22H409.686V194.22H430.206V192.22ZM408.686 193.22V204.83H410.686V193.22H408.686ZM409.686 205.83H423.006V203.83H409.686V205.83ZM423.856 205.357L431.056 193.747L429.356 192.693L422.156 204.303L423.856 205.357ZM477.904 243.71L478.692 243.094L478.079 242.309L477.291 242.92L477.904 243.71ZM466.294 252.71L465.681 251.92L464.767 252.629L465.601 253.431L466.294 252.71ZM510.304 209.51L509.492 210.094L510.095 210.932L510.914 210.303L510.304 209.51ZM522.004 200.51L522.614 201.303L523.516 200.608L522.711 199.803L522.004 200.51ZM466.194 212.3C466.194 218.267 469.045 222.405 473.208 225.382C477.319 228.321 482.745 230.158 488.032 231.624C493.402 233.112 498.553 234.204 502.458 235.664C504.398 236.389 505.915 237.167 506.934 238.053C507.926 238.915 508.404 239.836 508.404 240.92H510.404C510.404 239.124 509.563 237.688 508.246 236.544C506.958 235.423 505.177 234.545 503.159 233.79C499.15 232.291 493.748 231.133 488.566 229.696C483.3 228.237 478.174 226.474 474.371 223.755C470.619 221.072 468.194 217.493 468.194 212.3H466.194ZM508.404 240.92C508.404 242.508 507.348 244.103 505.286 245.352C503.24 246.592 500.344 247.39 497.074 247.39V249.39C500.644 249.39 503.913 248.523 506.322 247.063C508.715 245.612 510.404 243.472 510.404 240.92H508.404ZM497.074 247.39H488.074V249.39H497.074V247.39ZM488.074 247.39C484.644 247.39 480.725 245.697 478.692 243.094L477.116 244.326C479.583 247.483 484.123 249.39 488.074 249.39V247.39ZM477.291 242.92L465.681 251.92L466.907 253.5L478.517 244.5L477.291 242.92ZM465.601 253.431C468.099 255.833 471.956 257.715 476.005 258.996C480.07 260.282 484.448 261 488.074 261V259C484.68 259 480.507 258.323 476.608 257.089C472.692 255.85 469.168 254.087 466.987 251.989L465.601 253.431ZM488.074 261H497.074V259H488.074V261ZM497.074 261C504.377 261 511.047 258.806 515.915 255.213C520.783 251.621 523.904 246.578 523.904 240.92H521.904C521.904 245.792 519.22 250.289 514.728 253.604C510.236 256.919 503.991 259 497.074 259V261ZM523.904 240.92C523.904 234.915 521.06 230.679 516.904 227.596C512.795 224.546 507.371 222.595 502.077 221.06C496.69 219.497 491.556 218.391 487.624 216.994C485.676 216.302 484.152 215.578 483.128 214.768C482.126 213.976 481.694 213.181 481.694 212.3H479.694C479.694 213.984 480.581 215.304 481.887 216.337C483.172 217.353 484.945 218.165 486.954 218.879C490.937 220.294 496.355 221.483 501.52 222.98C506.779 224.505 511.908 226.379 515.713 229.202C519.471 231.991 521.904 235.675 521.904 240.92H523.904ZM481.694 212.3C481.694 210.678 482.699 209.085 484.593 207.85C486.478 206.621 489.139 205.83 492.124 205.83V203.83C488.809 203.83 485.755 204.704 483.5 206.175C481.254 207.64 479.694 209.782 479.694 212.3H481.694ZM492.124 205.83H501.124V203.83H492.124V205.83ZM501.124 205.83C504.147 205.83 507.619 207.487 509.492 210.094L511.116 208.926C508.849 205.773 504.76 203.83 501.124 203.83V205.83ZM510.914 210.303L522.614 201.303L521.394 199.717L509.694 208.717L510.914 210.303ZM522.711 199.803C520.305 197.397 516.606 195.512 512.721 194.228C508.822 192.94 504.62 192.22 501.124 192.22V194.22C504.377 194.22 508.366 194.895 512.094 196.127C515.836 197.363 519.203 199.123 521.297 201.217L522.711 199.803ZM501.124 192.22H492.124V194.22H501.124V192.22ZM492.124 192.22C485.038 192.22 478.588 194.419 473.887 198.017C469.186 201.616 466.194 206.658 466.194 212.3H468.194C468.194 207.412 470.782 202.913 475.103 199.605C479.425 196.296 485.439 194.22 492.124 194.22V192.22Z" fill="black"/>
</svg>
