<svg width="428" height="222" viewBox="0 0 428 222" fill="none" xmlns="http://www.w3.org/2000/svg">
<circle cx="84.7319" cy="90.9991" r="70" fill="#599BFC" stroke="white" stroke-width="4"/>
<path d="M104.518 13.3862L93.7319 22.4894L105.448 14.9624C109.835 12.144 114.636 10.0291 119.676 8.69457L120.159 8.56683L121.391 8.39203C125.208 7.85069 128.97 9.68575 130.893 13.0267C131.636 14.3189 132.063 15.769 132.138 17.258L132.563 25.7023L131.533 39.6799C131.144 44.9645 129.917 50.1535 127.898 55.0529L116.384 82.9991L134.721 46.5862L137.417 40.6959L139.434 34.0208C140.245 31.3358 140.829 28.5873 141.18 25.8044L141.732 21.4184L141.732 16.5867C141.732 14.1302 141.156 11.7079 140.052 9.51396L139.954 9.32086C139.345 8.11041 138.565 6.99331 137.64 6.00347C134.165 2.28861 128.971 0.712224 124.018 1.86932L122.855 2.14102L122.658 2.19699C117.807 3.57322 113.286 5.9227 109.372 9.10231L104.518 13.3862Z" fill="white" stroke="white"/>
<path d="M100.56 137.373L86.6255 131.372L99.97 100.388L105.309 87.9918C110.516 75.9016 118.441 65.181 128.461 56.66C127.61 69.1777 124.64 81.4632 119.674 92.9917L113.904 106.389L100.56 137.373ZM117.845 65.885C115.618 68.5139 113.549 71.2735 111.651 74.1489C113.397 71.1697 115.475 68.3973 117.845 65.885ZM126.912 74.0282C126.791 74.5867 126.66 75.1428 126.518 75.6964C126.654 75.1413 126.785 74.5853 126.912 74.0282Z" fill="#C1FFFF" stroke="#444444"/>
<path d="M106.473 100.137L108.48 101.036C112.764 102.956 114.68 107.985 112.76 112.269L110.181 118.025L92.6608 110.174L95.2404 104.417C97.1602 100.134 102.189 98.2171 106.473 100.137Z" fill="#0B43A1" stroke="white"/>
<mask id="path-5-inside-1" fill="white">
<path fill-rule="evenodd" clip-rule="evenodd" d="M112.4 143.244C130.103 137.668 141.076 119.704 135.5 102C133.932 97.0221 125.112 104.57 115.718 112.608C114.833 113.365 113.944 114.127 113.054 114.882C112.426 110.836 109.775 107.218 105.631 105.448C101.075 103.502 95.9028 104.297 92.0964 107.094C92.3685 105.021 92.6683 102.903 92.965 100.808C94.6367 89.0009 96.2125 77.8709 92.2083 79.132C74.5043 84.7077 64.6724 103.58 70.2481 121.283C71.754 126.065 74.2297 130.272 77.3904 133.757L53.6144 182.621L49.589 221.538L77.5678 192.854L100.96 144.778C104.731 144.929 108.592 144.443 112.4 143.244Z"/>
</mask>
<path fill-rule="evenodd" clip-rule="evenodd" d="M112.4 143.244C130.103 137.668 141.076 119.704 135.5 102C133.932 97.0221 125.112 104.57 115.718 112.608C114.833 113.365 113.944 114.127 113.054 114.882C112.426 110.836 109.775 107.218 105.631 105.448C101.075 103.502 95.9028 104.297 92.0964 107.094C92.3685 105.021 92.6683 102.903 92.965 100.808C94.6367 89.0009 96.2125 77.8709 92.2083 79.132C74.5043 84.7077 64.6724 103.58 70.2481 121.283C71.754 126.065 74.2297 130.272 77.3904 133.757L53.6144 182.621L49.589 221.538L77.5678 192.854L100.96 144.778C104.731 144.929 108.592 144.443 112.4 143.244Z" fill="#0B43A1"/>
<path d="M135.5 102L134.546 102.3L134.546 102.3L135.5 102ZM112.4 143.244L112.099 142.29L112.099 142.29L112.4 143.244ZM115.718 112.608L116.368 113.368L116.368 113.368L115.718 112.608ZM113.054 114.882L112.066 115.036L112.34 116.801L113.702 115.644L113.054 114.882ZM105.631 105.448L105.238 106.368L105.238 106.368L105.631 105.448ZM92.0964 107.094L91.1049 106.963L90.7999 109.287L92.6885 107.899L92.0964 107.094ZM92.965 100.808L93.9551 100.948L93.9551 100.948L92.965 100.808ZM92.2083 79.132L91.9079 78.1782L91.9079 78.1782L92.2083 79.132ZM70.2481 121.283L69.2943 121.584L69.2943 121.584L70.2481 121.283ZM77.3904 133.757L78.2896 134.194L78.5856 133.586L78.1311 133.085L77.3904 133.757ZM53.6144 182.621L52.7152 182.184L52.6379 182.342L52.6197 182.518L53.6144 182.621ZM49.589 221.538L48.5943 221.435L48.2987 224.293L50.3048 222.236L49.589 221.538ZM77.5678 192.854L78.2836 193.552L78.3963 193.436L78.467 193.291L77.5678 192.854ZM100.96 144.778L101 143.779L100.347 143.753L100.061 144.341L100.96 144.778ZM134.546 102.3C139.933 119.404 129.353 136.856 112.099 142.29L112.7 144.197C130.854 138.48 142.219 120.004 136.454 101.7L134.546 102.3ZM116.368 113.368C121.088 109.329 125.579 105.489 129.08 103.267C130.853 102.142 132.23 101.527 133.18 101.421C133.629 101.371 133.895 101.445 134.058 101.546C134.214 101.643 134.402 101.843 134.546 102.3L136.454 101.7C136.206 100.913 135.776 100.259 135.113 99.8474C134.457 99.44 133.702 99.3502 132.958 99.4332C131.519 99.5937 129.81 100.435 128.008 101.579C124.358 103.895 119.742 107.849 115.068 111.849L116.368 113.368ZM113.702 115.644C114.593 114.887 115.484 114.125 116.368 113.368L115.068 111.849C114.183 112.606 113.294 113.366 112.407 114.12L113.702 115.644ZM105.238 106.368C109.06 108 111.49 111.326 112.066 115.036L114.042 114.729C113.362 110.347 110.489 106.436 106.024 104.528L105.238 106.368ZM92.6885 107.899C96.2283 105.298 101.028 104.569 105.238 106.368L106.024 104.528C101.122 102.434 95.5773 103.295 91.5043 106.288L92.6885 107.899ZM91.9749 100.667C91.6783 102.762 91.3778 104.885 91.1049 106.963L93.0879 107.224C93.3592 105.157 93.6583 103.045 93.9551 100.948L91.9749 100.667ZM92.5087 80.0858C92.8067 79.9919 92.905 80.0503 92.936 80.0694C93.0048 80.1115 93.1576 80.2539 93.3132 80.6739C93.6305 81.5304 93.7664 83.0037 93.7154 85.0444C93.6148 89.0734 92.8141 94.74 91.9749 100.667L93.9551 100.948C94.7876 95.0685 95.6106 89.2667 95.7148 85.0943C95.7662 83.0343 95.6497 81.2237 95.1886 79.979C94.9549 79.3484 94.587 78.7359 93.982 78.3647C93.3393 77.9703 92.6109 77.9568 91.9079 78.1782L92.5087 80.0858ZM71.2019 120.983C65.7922 103.806 75.3315 85.4956 92.5087 80.0858L91.9079 78.1782C73.6772 83.9198 63.5527 103.353 69.2943 121.584L71.2019 120.983ZM78.1311 133.085C75.0655 129.705 72.6636 125.624 71.2019 120.983L69.2943 121.584C70.8444 126.506 73.394 130.839 76.6497 134.429L78.1311 133.085ZM54.5136 183.059L78.2896 134.194L76.4912 133.319L52.7152 182.184L54.5136 183.059ZM50.5836 221.641L54.6091 182.724L52.6197 182.518L48.5943 221.435L50.5836 221.641ZM76.8519 192.155L48.8731 220.84L50.3048 222.236L78.2836 193.552L76.8519 192.155ZM100.061 144.341L76.6686 192.416L78.467 193.291L101.859 145.216L100.061 144.341ZM112.099 142.29C108.404 143.454 104.658 143.925 101 143.779L100.92 145.777C104.805 145.933 108.781 145.432 112.7 144.197L112.099 142.29Z" fill="white" mask="url(#path-5-inside-1)"/>
<circle cx="73.6854" cy="171.764" r="8.19707" transform="rotate(-17.4813 73.6854 171.764)" fill="#CEDCFF"/>
<circle cx="73.6854" cy="171.764" r="8.19707" transform="rotate(-17.4813 73.6854 171.764)" stroke="#1E1E1E"/>
<circle cx="75.4829" cy="172.299" r="6.2965" transform="rotate(-17.4813 75.4829 172.299)" fill="#98AFE9"/>
<path d="M195.532 77.8391V121.999H187.148L170.892 94.4151V121.999H162.508V77.8391H170.892L187.148 105.487V77.8391H195.532ZM226.238 113.423H211.07L208.382 121.999H199.55L215.23 77.8391H222.078L237.822 121.999H228.926L226.238 113.423ZM223.998 106.447L218.622 89.4871L213.31 106.447H223.998ZM255.195 122.383C250.459 122.383 246.768 121.21 244.123 118.863C241.478 116.474 240.006 113.039 239.707 108.559H247.643C247.942 110.991 248.71 112.719 249.947 113.743C251.227 114.724 253.104 115.215 255.579 115.215C260.315 115.215 262.683 113.274 262.683 109.391C262.683 107.642 262.214 106.319 261.275 105.423C260.336 104.484 258.843 103.844 256.795 103.503L252.635 102.799C244.656 101.476 240.667 97.3804 240.667 90.5111C240.667 86.4151 242.011 83.1724 244.699 80.7831C247.43 78.3937 251.035 77.1991 255.515 77.1991C259.867 77.1991 263.302 78.3511 265.819 80.6551C268.379 82.9591 269.83 86.2018 270.171 90.3831H262.107C261.979 88.2497 261.36 86.6924 260.251 85.7111C259.142 84.7297 257.52 84.2391 255.387 84.2391C253.211 84.2391 251.568 84.7511 250.459 85.7751C249.35 86.7564 248.795 88.1217 248.795 89.8711C248.795 91.4071 249.286 92.6231 250.267 93.5191C251.248 94.4151 252.784 95.0551 254.875 95.4391L259.547 96.2711C267.142 97.6364 270.939 101.775 270.939 108.687C270.939 113.124 269.51 116.516 266.651 118.863C263.835 121.21 260.016 122.383 255.195 122.383ZM304.529 85.1351H293.265V121.999H284.817V85.1351H273.553V77.8391H304.529V85.1351ZM327.926 113.423H312.758L310.07 121.999H301.238L316.918 77.8391H323.766L339.51 121.999H330.614L327.926 113.423ZM325.686 106.447L320.31 89.4871L314.998 106.447H325.686ZM367.217 85.1351H355.953V121.999H347.505V85.1351H336.241V77.8391H367.217V85.1351ZM384.695 122.383C379.959 122.383 376.268 121.21 373.623 118.863C370.978 116.474 369.506 113.039 369.207 108.559H377.143C377.442 110.991 378.21 112.719 379.447 113.743C380.727 114.724 382.604 115.215 385.079 115.215C389.815 115.215 392.183 113.274 392.183 109.391C392.183 107.642 391.714 106.319 390.775 105.423C389.836 104.484 388.343 103.844 386.295 103.503L382.135 102.799C374.156 101.476 370.167 97.3804 370.167 90.5111C370.167 86.4151 371.511 83.1724 374.199 80.7831C376.93 78.3937 380.535 77.1991 385.015 77.1991C389.367 77.1991 392.802 78.3511 395.319 80.6551C397.879 82.9591 399.33 86.2018 399.671 90.3831H391.607C391.479 88.2497 390.86 86.6924 389.751 85.7111C388.642 84.7297 387.02 84.2391 384.887 84.2391C382.711 84.2391 381.068 84.7511 379.959 85.7751C378.85 86.7564 378.295 88.1217 378.295 89.8711C378.295 91.4071 378.786 92.6231 379.767 93.5191C380.748 94.4151 382.284 95.0551 384.375 95.4391L389.047 96.2711C396.642 97.6364 400.439 101.775 400.439 108.687C400.439 113.124 399.01 116.516 396.151 118.863C393.335 121.21 389.516 122.383 384.695 122.383Z" fill="white"/>
<path d="M195.532 77.8391H196.532V76.8391H195.532V77.8391ZM195.532 121.999V122.999H196.532V121.999H195.532ZM187.148 121.999L186.286 122.507L186.576 122.999H187.148V121.999ZM170.892 94.4151L171.753 93.9074L169.892 90.7486V94.4151H170.892ZM170.892 121.999V122.999H171.892V121.999H170.892ZM162.508 121.999H161.508V122.999H162.508V121.999ZM162.508 77.8391V76.8391H161.508V77.8391H162.508ZM170.892 77.8391L171.754 77.3322L171.464 76.8391H170.892V77.8391ZM187.148 105.487L186.286 105.994L188.148 109.161V105.487H187.148ZM187.148 77.8391V76.8391H186.148V77.8391H187.148ZM194.532 77.8391V121.999H196.532V77.8391H194.532ZM195.532 120.999H187.148V122.999H195.532V120.999ZM188.009 121.491L171.753 93.9074L170.03 94.9228L186.286 122.507L188.009 121.491ZM169.892 94.4151V121.999H171.892V94.4151H169.892ZM170.892 120.999H162.508V122.999H170.892V120.999ZM163.508 121.999V77.8391H161.508V121.999H163.508ZM162.508 78.8391H170.892V76.8391H162.508V78.8391ZM170.03 78.3459L186.286 105.994L188.01 104.98L171.754 77.3322L170.03 78.3459ZM188.148 105.487V77.8391H186.148V105.487H188.148ZM187.148 78.8391H195.532V76.8391H187.148V78.8391ZM226.238 113.423L227.193 113.124L226.973 112.423H226.238V113.423ZM211.07 113.423V112.423H210.336L210.116 113.124L211.07 113.423ZM208.382 121.999V122.999H209.117L209.337 122.298L208.382 121.999ZM199.55 121.999L198.608 121.664L198.134 122.999H199.55V121.999ZM215.23 77.8391V76.8391H214.524L214.288 77.5045L215.23 77.8391ZM222.078 77.8391L223.02 77.5033L222.784 76.8391H222.078V77.8391ZM237.822 121.999V122.999H239.241L238.764 121.663L237.822 121.999ZM228.926 121.999L227.972 122.298L228.192 122.999H228.926V121.999ZM223.998 106.447V107.447H225.364L224.952 106.145L223.998 106.447ZM218.622 89.4871L219.576 89.1849L218.617 86.1596L217.668 89.1882L218.622 89.4871ZM213.31 106.447L212.356 106.148L211.949 107.447H213.31V106.447ZM226.238 112.423H211.07V114.423H226.238V112.423ZM210.116 113.124L207.428 121.7L209.337 122.298L212.025 113.722L210.116 113.124ZM208.382 120.999H199.55V122.999H208.382V120.999ZM200.493 122.334L216.173 78.1737L214.288 77.5045L198.608 121.664L200.493 122.334ZM215.23 78.8391H222.078V76.8391H215.23V78.8391ZM221.136 78.1749L236.88 122.335L238.764 121.663L223.02 77.5033L221.136 78.1749ZM237.822 120.999H228.926V122.999H237.822V120.999ZM229.881 121.7L227.193 113.124L225.284 113.722L227.972 122.298L229.881 121.7ZM224.952 106.145L219.576 89.1849L217.669 89.7892L223.045 106.749L224.952 106.145ZM217.668 89.1882L212.356 106.148L214.265 106.746L219.577 89.786L217.668 89.1882ZM213.31 107.447H223.998V105.447H213.31V107.447ZM244.123 118.863L243.453 119.605L243.459 119.611L244.123 118.863ZM239.707 108.559V107.559H238.638L238.709 108.626L239.707 108.559ZM247.643 108.559L248.635 108.437L248.528 107.559H247.643V108.559ZM249.947 113.743L249.309 114.513L249.324 114.525L249.338 114.537L249.947 113.743ZM261.275 105.423L260.568 106.13L260.576 106.138L260.584 106.146L261.275 105.423ZM256.795 103.503L256.628 104.489L256.63 104.489L256.795 103.503ZM252.635 102.799L252.802 101.813L252.798 101.813L252.635 102.799ZM244.699 80.7831L244.04 80.0305L244.035 80.0357L244.699 80.7831ZM265.819 80.6551L265.144 81.3928L265.15 81.3984L265.819 80.6551ZM270.171 90.3831V91.3831H271.256L271.168 90.3017L270.171 90.3831ZM262.107 90.3831L261.109 90.443L261.165 91.3831H262.107V90.3831ZM250.459 85.7751L251.121 86.5241L251.129 86.5171L251.137 86.5099L250.459 85.7751ZM254.875 95.4391L254.694 96.4226L254.7 96.4236L254.875 95.4391ZM259.547 96.2711L259.724 95.2869L259.722 95.2866L259.547 96.2711ZM266.651 118.863L266.016 118.09L266.011 118.095L266.651 118.863ZM255.195 121.383C250.619 121.383 247.194 120.251 244.786 118.115L243.459 119.611C246.342 122.168 250.298 123.383 255.195 123.383V121.383ZM244.793 118.121C242.387 115.948 240.991 112.784 240.705 108.493L238.709 108.626C239.02 113.294 240.568 116.999 243.453 119.605L244.793 118.121ZM239.707 109.559H247.643V107.559H239.707V109.559ZM246.65 108.681C246.964 111.237 247.793 113.259 249.309 114.513L250.584 112.973C249.626 112.179 248.919 110.745 248.635 108.437L246.65 108.681ZM249.338 114.537C250.864 115.707 252.995 116.215 255.579 116.215V114.215C253.213 114.215 251.589 113.742 250.555 112.949L249.338 114.537ZM255.579 116.215C258.058 116.215 260.103 115.711 261.541 114.532C263.016 113.323 263.683 111.545 263.683 109.391H261.683C261.683 111.12 261.165 112.254 260.273 112.986C259.342 113.749 257.836 114.215 255.579 114.215V116.215ZM263.683 109.391C263.683 107.467 263.163 105.843 261.965 104.7L260.584 106.146C261.264 106.795 261.683 107.816 261.683 109.391H263.683ZM261.982 104.716C260.834 103.568 259.105 102.874 256.959 102.517L256.63 104.489C258.581 104.815 259.838 105.401 260.568 106.13L261.982 104.716ZM256.962 102.517L252.802 101.813L252.468 103.785L256.628 104.489L256.962 102.517ZM252.798 101.813C248.935 101.172 246.171 99.8809 244.375 98.0374C242.598 96.2127 241.667 93.741 241.667 90.5111H239.667C239.667 94.1505 240.73 97.1615 242.942 99.4328C245.136 101.685 248.356 103.103 252.471 103.786L252.798 101.813ZM241.667 90.5111C241.667 86.6567 242.92 83.7027 245.363 81.5305L244.035 80.0357C241.102 82.6422 239.667 86.1734 239.667 90.5111H241.667ZM245.357 81.5357C247.866 79.3409 251.218 78.1991 255.515 78.1991V76.1991C250.852 76.1991 246.993 77.4466 244.04 80.0305L245.357 81.5357ZM255.515 78.1991C259.688 78.1991 262.857 79.3001 265.144 81.3928L266.494 79.9174C263.746 77.4021 260.046 76.1991 255.515 76.1991V78.1991ZM265.15 81.3984C267.481 83.496 268.849 86.4789 269.174 90.4644L271.168 90.3017C270.81 85.9246 269.277 82.4222 266.488 79.9118L265.15 81.3984ZM270.171 89.3831H262.107V91.3831H270.171V89.3831ZM263.105 90.3232C262.968 88.0426 262.296 86.1847 260.913 84.9621L259.588 86.4601C260.425 87.2001 260.99 88.4569 261.109 90.443L263.105 90.3232ZM260.913 84.9621C259.555 83.7604 257.658 83.2391 255.387 83.2391V85.2391C257.382 85.2391 258.728 85.6991 259.588 86.4601L260.913 84.9621ZM255.387 83.2391C253.07 83.2391 251.142 83.7835 249.781 85.0403L251.137 86.5099C251.994 85.7187 253.352 85.2391 255.387 85.2391V83.2391ZM249.796 85.0261C248.433 86.2319 247.795 87.8922 247.795 89.8711H249.795C249.795 88.3513 250.266 87.2809 251.121 86.5241L249.796 85.0261ZM247.795 89.8711C247.795 91.6399 248.371 93.1419 249.593 94.2576L250.941 92.7806C250.2 92.1043 249.795 91.1742 249.795 89.8711H247.795ZM249.593 94.2576C250.772 95.3345 252.52 96.0232 254.694 96.4226L255.056 94.4555C253.049 94.0869 251.724 93.4957 250.941 92.7806L249.593 94.2576ZM254.7 96.4236L259.372 97.2556L259.722 95.2866L255.05 94.4546L254.7 96.4236ZM259.37 97.2553C263.031 97.9135 265.65 99.2177 267.354 101.075C269.047 102.92 269.939 105.421 269.939 108.687H271.939C271.939 105.041 270.933 102.017 268.828 99.723C266.735 97.4418 263.657 95.994 259.724 95.2869L259.37 97.2553ZM269.939 108.687C269.939 112.891 268.597 115.972 266.016 118.09L267.285 119.636C270.422 117.061 271.939 113.358 271.939 108.687H269.939ZM266.011 118.095C263.424 120.25 259.857 121.383 255.195 121.383V123.383C260.176 123.383 264.245 122.169 267.291 119.631L266.011 118.095ZM304.529 85.1351V86.1351H305.529V85.1351H304.529ZM293.265 85.1351V84.1351H292.265V85.1351H293.265ZM293.265 121.999V122.999H294.265V121.999H293.265ZM284.817 121.999H283.817V122.999H284.817V121.999ZM284.817 85.1351H285.817V84.1351H284.817V85.1351ZM273.553 85.1351H272.553V86.1351H273.553V85.1351ZM273.553 77.8391V76.8391H272.553V77.8391H273.553ZM304.529 77.8391H305.529V76.8391H304.529V77.8391ZM304.529 84.1351H293.265V86.1351H304.529V84.1351ZM292.265 85.1351V121.999H294.265V85.1351H292.265ZM293.265 120.999H284.817V122.999H293.265V120.999ZM285.817 121.999V85.1351H283.817V121.999H285.817ZM284.817 84.1351H273.553V86.1351H284.817V84.1351ZM274.553 85.1351V77.8391H272.553V85.1351H274.553ZM273.553 78.8391H304.529V76.8391H273.553V78.8391ZM303.529 77.8391V85.1351H305.529V77.8391H303.529ZM327.926 113.423L328.88 113.124L328.66 112.423H327.926V113.423ZM312.758 113.423V112.423H312.023L311.804 113.124L312.758 113.423ZM310.07 121.999V122.999H310.804L311.024 122.298L310.07 121.999ZM301.238 121.999L300.296 121.664L299.822 122.999H301.238V121.999ZM316.918 77.8391V76.8391H316.212L315.976 77.5045L316.918 77.8391ZM323.766 77.8391L324.708 77.5033L324.471 76.8391H323.766V77.8391ZM339.51 121.999V122.999H340.928L340.452 121.663L339.51 121.999ZM330.614 121.999L329.66 122.298L329.879 122.999H330.614V121.999ZM325.686 106.447V107.447H327.052L326.639 106.145L325.686 106.447ZM320.31 89.4871L321.263 89.1849L320.304 86.1596L319.356 89.1882L320.31 89.4871ZM314.998 106.447L314.044 106.148L313.637 107.447H314.998V106.447ZM327.926 112.423H312.758V114.423H327.926V112.423ZM311.804 113.124L309.116 121.7L311.024 122.298L313.712 113.722L311.804 113.124ZM310.07 120.999H301.238V122.999H310.07V120.999ZM302.18 122.334L317.86 78.1737L315.976 77.5045L300.296 121.664L302.18 122.334ZM316.918 78.8391H323.766V76.8391H316.918V78.8391ZM322.824 78.1749L338.568 122.335L340.452 121.663L324.708 77.5033L322.824 78.1749ZM339.51 120.999H330.614V122.999H339.51V120.999ZM331.568 121.7L328.88 113.124L326.972 113.722L329.66 122.298L331.568 121.7ZM326.639 106.145L321.263 89.1849L319.357 89.7892L324.733 106.749L326.639 106.145ZM319.356 89.1882L314.044 106.148L315.952 106.746L321.264 89.786L319.356 89.1882ZM314.998 107.447H325.686V105.447H314.998V107.447ZM367.217 85.1351V86.1351H368.217V85.1351H367.217ZM355.953 85.1351V84.1351H354.953V85.1351H355.953ZM355.953 121.999V122.999H356.953V121.999H355.953ZM347.505 121.999H346.505V122.999H347.505V121.999ZM347.505 85.1351H348.505V84.1351H347.505V85.1351ZM336.241 85.1351H335.241V86.1351H336.241V85.1351ZM336.241 77.8391V76.8391H335.241V77.8391H336.241ZM367.217 77.8391H368.217V76.8391H367.217V77.8391ZM367.217 84.1351H355.953V86.1351H367.217V84.1351ZM354.953 85.1351V121.999H356.953V85.1351H354.953ZM355.953 120.999H347.505V122.999H355.953V120.999ZM348.505 121.999V85.1351H346.505V121.999H348.505ZM347.505 84.1351H336.241V86.1351H347.505V84.1351ZM337.241 85.1351V77.8391H335.241V85.1351H337.241ZM336.241 78.8391H367.217V76.8391H336.241V78.8391ZM366.217 77.8391V85.1351H368.217V77.8391H366.217ZM373.623 118.863L372.953 119.605L372.959 119.611L373.623 118.863ZM369.207 108.559V107.559H368.138L368.209 108.626L369.207 108.559ZM377.143 108.559L378.135 108.437L378.028 107.559H377.143V108.559ZM379.447 113.743L378.809 114.513L378.824 114.525L378.838 114.537L379.447 113.743ZM390.775 105.423L390.068 106.13L390.076 106.138L390.084 106.146L390.775 105.423ZM386.295 103.503L386.128 104.489L386.13 104.489L386.295 103.503ZM382.135 102.799L382.302 101.813L382.298 101.813L382.135 102.799ZM374.199 80.7831L373.54 80.0305L373.535 80.0357L374.199 80.7831ZM395.319 80.6551L394.644 81.3928L394.65 81.3984L395.319 80.6551ZM399.671 90.3831V91.3831H400.756L400.668 90.3017L399.671 90.3831ZM391.607 90.3831L390.609 90.443L390.665 91.3831H391.607V90.3831ZM379.959 85.7751L380.621 86.5241L380.629 86.5171L380.637 86.5099L379.959 85.7751ZM384.375 95.4391L384.194 96.4226L384.2 96.4236L384.375 95.4391ZM389.047 96.2711L389.224 95.2869L389.222 95.2866L389.047 96.2711ZM396.151 118.863L395.516 118.09L395.511 118.095L396.151 118.863ZM384.695 121.383C380.119 121.383 376.694 120.251 374.286 118.115L372.959 119.611C375.842 122.168 379.798 123.383 384.695 123.383V121.383ZM374.293 118.121C371.887 115.948 370.491 112.784 370.205 108.493L368.209 108.626C368.52 113.294 370.068 116.999 372.953 119.605L374.293 118.121ZM369.207 109.559H377.143V107.559H369.207V109.559ZM376.15 108.681C376.464 111.237 377.293 113.259 378.809 114.513L380.084 112.973C379.126 112.179 378.419 110.745 378.135 108.437L376.15 108.681ZM378.838 114.537C380.364 115.707 382.495 116.215 385.079 116.215V114.215C382.713 114.215 381.089 113.742 380.055 112.949L378.838 114.537ZM385.079 116.215C387.558 116.215 389.603 115.711 391.041 114.532C392.516 113.323 393.183 111.545 393.183 109.391H391.183C391.183 111.12 390.665 112.254 389.773 112.986C388.842 113.749 387.336 114.215 385.079 114.215V116.215ZM393.183 109.391C393.183 107.467 392.663 105.843 391.465 104.7L390.084 106.146C390.764 106.795 391.183 107.816 391.183 109.391H393.183ZM391.482 104.716C390.334 103.568 388.605 102.874 386.459 102.517L386.13 104.489C388.081 104.815 389.338 105.401 390.068 106.13L391.482 104.716ZM386.462 102.517L382.302 101.813L381.968 103.785L386.128 104.489L386.462 102.517ZM382.298 101.813C378.435 101.172 375.671 99.8809 373.875 98.0374C372.098 96.2127 371.167 93.741 371.167 90.5111H369.167C369.167 94.1505 370.23 97.1615 372.442 99.4328C374.636 101.685 377.856 103.103 381.971 103.786L382.298 101.813ZM371.167 90.5111C371.167 86.6567 372.42 83.7027 374.863 81.5305L373.535 80.0357C370.602 82.6422 369.167 86.1734 369.167 90.5111H371.167ZM374.857 81.5357C377.366 79.3409 380.718 78.1991 385.015 78.1991V76.1991C380.352 76.1991 376.493 77.4466 373.54 80.0305L374.857 81.5357ZM385.015 78.1991C389.188 78.1991 392.357 79.3001 394.644 81.3928L395.994 79.9174C393.246 77.4021 389.546 76.1991 385.015 76.1991V78.1991ZM394.65 81.3984C396.981 83.496 398.349 86.4789 398.674 90.4644L400.668 90.3017C400.31 85.9246 398.777 82.4222 395.988 79.9118L394.65 81.3984ZM399.671 89.3831H391.607V91.3831H399.671V89.3831ZM392.605 90.3232C392.468 88.0426 391.796 86.1847 390.413 84.9621L389.088 86.4601C389.925 87.2001 390.49 88.4569 390.609 90.443L392.605 90.3232ZM390.413 84.9621C389.055 83.7604 387.158 83.2391 384.887 83.2391V85.2391C386.882 85.2391 388.228 85.6991 389.088 86.4601L390.413 84.9621ZM384.887 83.2391C382.57 83.2391 380.642 83.7835 379.281 85.0403L380.637 86.5099C381.494 85.7187 382.852 85.2391 384.887 85.2391V83.2391ZM379.296 85.0261C377.933 86.2319 377.295 87.8922 377.295 89.8711H379.295C379.295 88.3513 379.766 87.2809 380.621 86.5241L379.296 85.0261ZM377.295 89.8711C377.295 91.6399 377.871 93.1419 379.093 94.2576L380.441 92.7806C379.7 92.1043 379.295 91.1742 379.295 89.8711H377.295ZM379.093 94.2576C380.272 95.3345 382.02 96.0232 384.194 96.4226L384.556 94.4555C382.549 94.0869 381.224 93.4957 380.441 92.7806L379.093 94.2576ZM384.2 96.4236L388.872 97.2556L389.222 95.2866L384.55 94.4546L384.2 96.4236ZM388.87 97.2553C392.531 97.9135 395.15 99.2177 396.854 101.075C398.547 102.92 399.439 105.421 399.439 108.687H401.439C401.439 105.041 400.433 102.017 398.328 99.723C396.235 97.4418 393.157 95.994 389.224 95.2869L388.87 97.2553ZM399.439 108.687C399.439 112.891 398.097 115.972 395.516 118.09L396.785 119.636C399.922 117.061 401.439 113.358 401.439 108.687H399.439ZM395.511 118.095C392.924 120.25 389.357 121.383 384.695 121.383V123.383C389.676 123.383 393.745 122.169 396.791 119.631L395.511 118.095Z" fill="black"/>
</svg>
